<svg xmlns="http://www.w3.org/2000/svg" viewBox="0 0 64 64">
  <defs>
    <linearGradient id="snowGrad" x1="0%" y1="100%" x2="0%" y2="0%">
      <stop offset="0%" stop-color="#CBD5E1"/>
      <stop offset="100%" stop-color="#F8FAFC"/>
    </linearGradient>
  </defs>
  <!-- Snow-covered peak -->
  <path d="M8 56 L32 8 L56 56 Z" fill="url(#snowGrad)" stroke="#94A3B8" stroke-width="2"/>
  <!-- Snow drifts -->
  <path d="M16 48 Q24 44 32 48 Q40 52 48 48" stroke="#E2E8F0" stroke-width="2" fill="none"/>
  <path d="M20 40 Q28 36 36 40 Q44 44 48 40" stroke="#F1F5F9" stroke-width="2" fill="none"/>
  <!-- Icicles -->
  <path d="M24 56 L26 48 L28 56" fill="#BFDBFE"/>
  <path d="M36 56 L38 50 L40 56" fill="#BFDBFE"/>
  <!-- Snow traveler figure -->
  <circle cx="32" cy="28" r="4" fill="#FEF3C7" stroke="#D97706" stroke-width="1"/>
  <path d="M32 32 L32 44" stroke="#78350F" stroke-width="2"/>
  <path d="M26 38 L32 34 L38 38" stroke="#78350F" stroke-width="1.5" fill="none"/>
  <!-- Ice axe -->
  <line x1="38" y1="34" x2="46" y2="26" stroke="#64748B" stroke-width="2"/>
  <!-- Snowflakes -->
  <circle cx="12" cy="24" r="1" fill="#E2E8F0"/>
  <circle cx="52" cy="20" r="1" fill="#E2E8F0"/>
  <circle cx="20" cy="16" r="0.5" fill="#E2E8F0"/>
</svg>
