<svg xmlns="http://www.w3.org/2000/svg" viewBox="0 0 64 64">
  <defs>
    <linearGradient id="safarGrad" x1="0%" y1="0%" x2="100%" y2="100%">
      <stop offset="0%" stop-color="#7C3AED"/>
      <stop offset="100%" stop-color="#4F46E5"/>
    </linearGradient>
  </defs>
  <!-- Compass rose -->
  <circle cx="32" cy="32" r="28" fill="none" stroke="#A78BFA" stroke-width="2"/>
  <circle cx="32" cy="32" r="24" fill="url(#safarGrad)" stroke="#6D28D9" stroke-width="2"/>
  <!-- Direction points -->
  <path d="M32 8 L36 28 L32 24 L28 28 Z" fill="#FCD34D" stroke="#D97706" stroke-width="0.5"/>
  <path d="M32 56 L28 36 L32 40 L36 36 Z" fill="#FCD34D" stroke="#D97706" stroke-width="0.5"/>
  <path d="M8 32 L28 28 L24 32 L28 36 Z" fill="#FCD34D" stroke="#D97706" stroke-width="0.5"/>
  <path d="M56 32 L36 36 L40 32 L36 28 Z" fill="#FCD34D" stroke="#D97706" stroke-width="0.5"/>
  <!-- Center star -->
  <circle cx="32" cy="32" r="8" fill="#FBBF24" stroke="#D97706" stroke-width="1"/>
  <path d="M32 24 L34 30 L40 32 L34 34 L32 40 L30 34 L24 32 L30 30 Z" fill="#D97706"/>
  <!-- Cardinal markers -->
  <text x="32" y="16" text-anchor="middle" font-size="6" font-weight="bold" fill="#FCD34D">N</text>
  <text x="32" y="54" text-anchor="middle" font-size="6" font-weight="bold" fill="#FCD34D">S</text>
  <text x="10" y="34" text-anchor="middle" font-size="6" font-weight="bold" fill="#FCD34D">W</text>
  <text x="54" y="34" text-anchor="middle" font-size="6" font-weight="bold" fill="#FCD34D">E</text>
</svg>
