<svg xmlns="http://www.w3.org/2000/svg" viewBox="0 0 64 64">
  <defs>
    <radialGradient id="guruGrad" cx="50%" cy="50%" r="50%">
      <stop offset="0%" stop-color="#FBBF24"/>
      <stop offset="50%" stop-color="#F59E0B"/>
      <stop offset="100%" stop-color="#D97706"/>
    </radialGradient>
  </defs>
  <!-- Divine halo -->
  <circle cx="32" cy="32" r="28" fill="none" stroke="#FCD34D" stroke-width="2" opacity="0.5"/>
  <circle cx="32" cy="32" r="24" fill="none" stroke="#FBBF24" stroke-width="1" opacity="0.7"/>
  <!-- Inner wisdom circle -->
  <circle cx="32" cy="32" r="18" fill="url(#guruGrad)" stroke="#B45309" stroke-width="2"/>
  <!-- Third eye -->
  <ellipse cx="32" cy="26" rx="4" ry="3" fill="#7C3AED" stroke="#4C1D95" stroke-width="1"/>
  <circle cx="32" cy="26" r="1.5" fill="#FCD34D"/>
  <!-- Meditation pose silhouette -->
  <path d="M24 44 Q28 36 32 38 Q36 36 40 44" fill="#78350F"/>
  <circle cx="32" cy="34" r="4" fill="#78350F"/>
  <!-- Hands in namaste -->
  <path d="M28 42 L32 48 L36 42" stroke="#78350F" stroke-width="2" fill="none"/>
  <!-- Radiating wisdom rays -->
  <g stroke="#FCD34D" stroke-width="1" opacity="0.6">
    <line x1="32" y1="4" x2="32" y2="10"/>
    <line x1="32" y1="54" x2="32" y2="60"/>
    <line x1="4" y1="32" x2="10" y2="32"/>
    <line x1="54" y1="32" x2="60" y2="32"/>
    <line x1="12" y1="12" x2="16" y2="16"/>
    <line x1="48" y1="48" x2="52" y2="52"/>
    <line x1="52" y1="12" x2="48" y2="16"/>
    <line x1="16" y1="48" x2="12" y2="52"/>
  </g>
</svg>
