<svg xmlns="http://www.w3.org/2000/svg" viewBox="0 0 64 64">
  <defs>
    <linearGradient id="pagdandiGrad" x1="0%" y1="100%" x2="0%" y2="0%">
      <stop offset="0%" stop-color="#65A30D"/>
      <stop offset="100%" stop-color="#84CC16"/>
    </linearGradient>
  </defs>
  <!-- Winding trail through forest -->
  <path d="M8 56 Q20 48 24 40 Q28 32 36 36 Q44 40 48 32 Q56 24 56 16" stroke="#92400E" stroke-width="4" fill="none" stroke-linecap="round"/>
  <!-- Trees on sides -->
  <path d="M12 48 L16 32 L20 48 Z" fill="#059669"/>
  <path d="M28 52 L32 36 L36 52 Z" fill="#059669"/>
  <path d="M44 48 L48 32 L52 48 Z" fill="#059669"/>
  <path d="M4 40 L8 24 L12 40 Z" fill="#10B981"/>
  <path d="M52 44 L56 28 L60 44 Z" fill="#10B981"/>
  <!-- Trail markers -->
  <circle cx="24" cy="40" r="2" fill="#F59E0B"/>
  <circle cx="48" cy="32" r="2" fill="#F59E0B"/>
  <!-- Mountain peak in distance -->
  <path d="M44 12 L52 4 L60 12" stroke="#94A3B8" stroke-width="1.5" fill="none"/>
</svg>
